<mxfile host="app.diagrams.net" modified="2023-01-21T18:39:53.361Z" agent="5.0 (Macintosh; Intel Mac OS X 10_15_7) AppleWebKit/605.1.15 (KHTML, like Gecko) Version/16.0 Safari/605.1.15" etag="96EB5RJ2l-Sw_K4UwGdX" version="20.8.10" type="github">
  <diagram name="Page-1" id="vvOxv4EHTCGe33tEqXue">
    <mxGraphModel dx="1647" dy="695" grid="1" gridSize="10" guides="1" tooltips="1" connect="1" arrows="1" fold="1" page="1" pageScale="1" pageWidth="827" pageHeight="1169" math="0" shadow="0">
      <root>
        <mxCell id="0" />
        <mxCell id="1" parent="0" />
        <mxCell id="4k7A1XTuDeSguO8pX62X-1" value="" style="rounded=1;whiteSpace=wrap;html=1;" vertex="1" parent="1">
          <mxGeometry x="234" y="220" width="360" height="350" as="geometry" />
        </mxCell>
        <mxCell id="4k7A1XTuDeSguO8pX62X-2" value="" style="fontColor=#0066CC;verticalAlign=top;verticalLabelPosition=bottom;labelPosition=center;align=center;html=1;outlineConnect=0;fillColor=#CCCCCC;strokeColor=#6881B3;gradientColor=none;gradientDirection=north;strokeWidth=2;shape=mxgraph.networks.pc;" vertex="1" parent="1">
          <mxGeometry y="360" width="100" height="70" as="geometry" />
        </mxCell>
        <mxCell id="4k7A1XTuDeSguO8pX62X-3" value="" style="shape=image;html=1;verticalAlign=top;verticalLabelPosition=bottom;labelBackgroundColor=#ffffff;imageAspect=0;aspect=fixed;image=https://cdn0.iconfinder.com/data/icons/long-shadow-web-icons/512/angular-symbol-128.png" vertex="1" parent="1">
          <mxGeometry x="280" y="280" width="80" height="80" as="geometry" />
        </mxCell>
        <mxCell id="4k7A1XTuDeSguO8pX62X-6" value="" style="dashed=0;outlineConnect=0;html=1;align=center;labelPosition=center;verticalLabelPosition=bottom;verticalAlign=top;shape=mxgraph.webicons.java;gradientColor=#DFDEDE" vertex="1" parent="1">
          <mxGeometry x="280" y="480" width="80" height="80" as="geometry" />
        </mxCell>
        <mxCell id="4k7A1XTuDeSguO8pX62X-7" value="" style="outlineConnect=0;dashed=0;verticalLabelPosition=bottom;verticalAlign=top;align=center;html=1;shape=mxgraph.aws3.redis;fillColor=#2E73B8;gradientColor=none;" vertex="1" parent="1">
          <mxGeometry x="480" y="480" width="80" height="80" as="geometry" />
        </mxCell>
        <mxCell id="4k7A1XTuDeSguO8pX62X-9" value="" style="endArrow=classic;html=1;rounded=0;exitX=0.25;exitY=1;exitDx=0;exitDy=0;" edge="1" parent="1" source="4k7A1XTuDeSguO8pX62X-3" target="4k7A1XTuDeSguO8pX62X-6">
          <mxGeometry width="50" height="50" relative="1" as="geometry">
            <mxPoint x="-210" y="350" as="sourcePoint" />
            <mxPoint x="190" y="430" as="targetPoint" />
          </mxGeometry>
        </mxCell>
        <mxCell id="4k7A1XTuDeSguO8pX62X-10" value="" style="endArrow=classic;startArrow=classic;html=1;rounded=0;exitX=0.75;exitY=1;exitDx=0;exitDy=0;" edge="1" parent="1" source="4k7A1XTuDeSguO8pX62X-3" target="4k7A1XTuDeSguO8pX62X-6">
          <mxGeometry width="50" height="50" relative="1" as="geometry">
            <mxPoint x="-220" y="390" as="sourcePoint" />
            <mxPoint x="-70" y="420" as="targetPoint" />
          </mxGeometry>
        </mxCell>
        <mxCell id="4k7A1XTuDeSguO8pX62X-11" value="" style="endArrow=classic;html=1;rounded=0;exitX=1;exitY=0.5;exitDx=0;exitDy=0;exitPerimeter=0;" edge="1" parent="1" source="4k7A1XTuDeSguO8pX62X-2" target="4k7A1XTuDeSguO8pX62X-3">
          <mxGeometry width="50" height="50" relative="1" as="geometry">
            <mxPoint x="-210" y="350" as="sourcePoint" />
            <mxPoint x="50" y="470" as="targetPoint" />
          </mxGeometry>
        </mxCell>
        <mxCell id="4k7A1XTuDeSguO8pX62X-14" value="" style="endArrow=classic;html=1;rounded=0;exitX=1;exitY=0.5;exitDx=0;exitDy=0;exitPerimeter=0;" edge="1" parent="1" source="4k7A1XTuDeSguO8pX62X-6" target="4k7A1XTuDeSguO8pX62X-7">
          <mxGeometry width="50" height="50" relative="1" as="geometry">
            <mxPoint x="230" y="550" as="sourcePoint" />
            <mxPoint x="280" y="500" as="targetPoint" />
          </mxGeometry>
        </mxCell>
        <mxCell id="4k7A1XTuDeSguO8pX62X-15" value="" style="aspect=fixed;html=1;points=[];align=center;image;fontSize=12;image=img/lib/azure2/blockchain/Azure_Blockchain_Service.svg;" vertex="1" parent="1">
          <mxGeometry x="480" y="280" width="80" height="80" as="geometry" />
        </mxCell>
        <mxCell id="4k7A1XTuDeSguO8pX62X-16" value="" style="endArrow=classic;html=1;rounded=0;" edge="1" parent="1" source="4k7A1XTuDeSguO8pX62X-6" target="4k7A1XTuDeSguO8pX62X-15">
          <mxGeometry width="50" height="50" relative="1" as="geometry">
            <mxPoint x="270" y="690" as="sourcePoint" />
            <mxPoint x="480" y="360" as="targetPoint" />
          </mxGeometry>
        </mxCell>
        <mxCell id="4k7A1XTuDeSguO8pX62X-17" value="WSS" style="text;html=1;strokeColor=none;fillColor=none;align=center;verticalAlign=middle;whiteSpace=wrap;rounded=0;rotation=-83;" vertex="1" parent="1">
          <mxGeometry x="300" y="390" width="60" height="30" as="geometry" />
        </mxCell>
        <mxCell id="4k7A1XTuDeSguO8pX62X-18" value="HTTPS" style="text;html=1;strokeColor=none;fillColor=none;align=center;verticalAlign=middle;whiteSpace=wrap;rounded=0;rotation=-98;" vertex="1" parent="1">
          <mxGeometry x="270" y="390" width="60" height="30" as="geometry" />
        </mxCell>
        <mxCell id="4k7A1XTuDeSguO8pX62X-21" value="JSONRPC" style="text;html=1;strokeColor=none;fillColor=none;align=center;verticalAlign=middle;whiteSpace=wrap;rounded=0;rotation=-45;" vertex="1" parent="1">
          <mxGeometry x="384" y="400" width="60" height="30" as="geometry" />
        </mxCell>
      </root>
    </mxGraphModel>
  </diagram>
</mxfile>
